Coordinates
version=1
nRows=17
nColumns=36
inDegrees=yes

Units are S.I. units (second, meters, Newtons, ...)
If the header above contains a line with 'inDegrees', this indicates whether rotational values are in degrees (yes) or radians (no).

endheader
time	pelvis_tilt	pelvis_list	pelvis_rotation	pelvis_tx	pelvis_ty	pelvis_tz	hip_flexion_r	hip_adduction_r	hip_rotation_r	knee_angle_r	knee_angle_r_beta	ankle_angle_r	subtalar_angle_r	mtp_angle_r	hip_flexion_l	hip_adduction_l	hip_rotation_l	knee_angle_l	knee_angle_l_beta	ankle_angle_l	subtalar_angle_l	mtp_angle_l	lumbar_extension	lumbar_bending	lumbar_rotation	arm_flex_r	arm_add_r	arm_rot_r	elbow_flex_r	pro_sup_r	arm_flex_l	arm_add_l	arm_rot_l	elbow_flex_l	pro_sup_l
      0.00000000	     -0.58930362	      3.47414980	      4.89625933	      0.57543117	      0.93509150	     -0.16649746	      4.35428931	      3.59336032	      3.11217832	     13.76939824	      0.24032134	     11.83800244	    -10.97802370	     -6.23537685	     12.46817021	     -5.08612113	     -5.92589912	     36.12227844	      0.63045269	      0.99761704	    -19.18528701	     -6.23537685	     -8.10440521	     -0.24640433	     -3.53018753	     44.45065550	     10.37507915	     55.70126169	    119.45134595	    106.79090220	     35.35869003	     10.69669488	     65.83087859	    126.59082483	    106.76975138
      0.01666670	     -2.13441793	      3.07164396	      3.11383807	      0.57834961	      0.93218012	     -0.16688672	      6.24956356	      4.03146901	      5.03510844	     14.54264127	      0.25381697	     12.93085124	    -12.45679985	     -6.38672258	     13.86226997	     -5.92022629	     -9.44365097	     36.39337092	      0.63518415	      3.77020412	    -15.35323884	     -6.38672258	     -5.62950124	      1.09159722	     -2.87845134	     46.67745497	     11.10362721	     57.93394989	    120.28874332	    104.54302474	     36.04014784	     11.07478562	     66.06354248	    128.25777236	    104.46791546
      0.03333330	     -3.35605960	      2.96045664	      2.37639096	      0.58005092	      0.92729982	     -0.16694269	      6.84593110	      4.06233327	      4.78009012	     13.54015199	      0.23632023	     12.17612035	    -12.97769532	     -6.44023698	     14.97030947	     -6.47829700	    -10.88305902	     36.71959338	      0.64087780	      4.75290167	    -14.65309967	     -6.44023698	     -3.83379941	      1.33359140	     -2.15392359	     46.77047992	     11.48228272	     59.64790033	    120.97944031	    104.23202723	     36.42527895	     11.04956689	     65.99129007	    128.95353340	    104.01338413
      0.05000000	     -3.48393635	      2.90935410	      2.17424861	      0.58072495	      0.92773272	     -0.16651011	      6.46697958	      4.18442918	      5.01372200	     12.58178264	      0.21959353	     12.08404534	    -12.89358838	     -6.58811719	     14.91373070	     -6.73735116	    -11.41081087	     36.93388781	      0.64461795	      5.19580119	    -14.59108614	     -6.58811719	     -3.51645893	      1.41090594	     -2.29961511	     46.59531942	     12.17243283	     61.77940171	    120.56329441	    103.27877619	     37.45480850	     10.75022672	     65.19368633	    127.58970649	    102.44153472
      0.06666670	     -3.56444009	      2.80584450	      2.07866236	      0.58097112	      0.92997843	     -0.16678885	      6.13258024	      4.35875523	      4.80966896	     11.76963295	      0.20541885	     11.86326607	    -12.32920382	     -6.70287534	     14.78830199	     -6.86797387	    -11.59587018	     36.46569836	      0.63644650	      5.17488196	    -14.23189028	     -6.70287534	     -3.31699909	      1.77971566	     -2.45667849	     45.93129146	     12.36820402	     63.44072532	    119.99614877	    100.82375820	     37.90589109	     10.45655720	     64.67636186	    126.29696022	     99.73405877
      0.08333330	     -3.67253105	      2.60988130	      1.92432680	      0.58126183	      0.92849423	     -0.16644878	      6.23545486	      4.74503370	      5.28326012	     11.70160364	      0.20423151	     11.57009685	    -12.86807199	     -6.80116693	     15.17765643	     -7.28998251	    -12.00098441	     37.02515670	      0.64621089	      5.55327973	    -13.77990864	     -6.80116693	     -3.16971454	      2.07602113	     -2.77942293	     45.65130206	     12.46919931	     64.32932804	    119.39778328	    100.44621147	     37.70726358	     10.04060288	     64.61041792	    125.89001989	     98.88531324
      0.10000000	     -3.82183573	      2.60984602	      1.85948836	      0.58119145	      0.92905317	     -0.16681469	      6.46055346	      4.74388691	      5.36116094	     11.66279076	      0.20355410	     11.15659970	    -13.35242610	     -6.95428820	     15.31843053	     -7.35770226	    -12.34389777	     37.10332988	      0.64757527	      5.80004759	    -13.60632450	     -6.95428820	     -2.89417698	      2.14462224	     -2.94319168	     45.70132415	     12.33523530	     64.99854550	    118.68972872	     98.57583477	     37.13104304	      9.95965788	     65.43720513	    126.36221489	     96.50939312
      0.11666670	     -3.78401225	      2.66963894	      1.94163503	      0.58136885	      0.93423600	     -0.16672624	      6.38837874	      4.65582618	      5.18295443	     11.51103512	      0.20090546	     10.94473056	    -13.29439992	     -6.95781424	     15.26460591	     -7.25712345	    -12.44752827	     36.90615352	      0.64413389	      5.85409604	    -13.53976085	     -6.95781424	     -2.95523900	      1.91597380	     -3.13882232	     45.34716906	     12.13229673	     65.19275793	    118.46791542	     98.54378005	     36.53871156	      9.75869084	     65.87648290	    126.22975981	     96.45651767
      0.13333330	     -3.77279668	      2.81096544	      1.90548935	      0.58149023	      0.93417456	     -0.16728746	      6.39567112	      4.43119112	      5.09212237	     11.31240952	      0.19743879	     10.74741308	    -13.30208203	     -7.00113021	     15.03091813	     -7.05957926	    -12.60981367	     36.48497913	      0.63678301	      5.77702120	    -13.35459956	     -7.00113021	     -2.96075152	      1.74536905	     -3.34181987	     45.15503757	     12.14988131	     64.99321146	    118.07705859	     97.28249972	     35.91626086	      9.45926497	     66.53229314	    126.66941896	     95.06742585
      0.15000000	     -3.74658852	      2.92706907	      1.88380836	      0.58159614	      0.93444342	     -0.16668222	      6.28568354	      4.28121760	      5.13332013	     11.14914788	      0.19458934	     10.32672817	    -13.69715743	     -7.17503634	     14.81223720	     -6.88750596	    -12.71535032	     36.07153885	      0.62956712	      5.80220215	    -13.09368472	     -7.17503634	     -2.98559032	      1.56327431	     -3.29246147	     44.91032274	     12.16700301	     64.93235965	    118.22269999	     97.80919970	     35.61907252	      9.49164209	     66.74490738	    125.96039711	     93.19295799
      0.16666670	     -3.63740159	      2.94547195	      1.79934152	      0.58567527	      0.93242377	     -0.17015476	      6.13110775	      4.17315170	      5.15190187	     11.21306189	      0.19570485	     10.31076582	    -13.71799822	     -7.17792457	     14.62050914	     -6.75837042	    -12.60278663	     36.12603327	      0.63051823	      5.63092504	    -13.11331728	     -7.17792457	     -2.96664064	      1.60440160	     -3.46344323	     44.93301610	     12.42289730	     64.99060371	    118.45060648	     97.81793257	     35.36973231	      9.54714798	     66.74795156	    125.73000499	     93.14664122
      0.18333330	     -3.62277483	      2.94619819	      1.79959709	      0.58199750	      0.93241799	     -0.16644904	      6.13401866	      4.20057430	      5.14486690	     11.20943866	      0.19564161	     10.31596538	    -13.72239865	     -7.17794953	     14.64381319	     -6.74897159	    -12.60090114	     36.12178707	      0.63044412	      5.62439940	    -13.11148361	     -7.17794953	     -2.96438812	      1.60960246	     -3.46288072	     44.94114146	     12.43112291	     64.98994855	    118.45405219	     97.81779699	     35.37214738	      9.55300520	     66.74666639	    125.72381505	     93.14583113
      0.20000000	     -3.13466796	      3.04358223	      1.94031726	      0.58970427	      0.93510955	     -0.16725565	      5.40030484	      4.11576090	      5.23409010	     11.10703255	      0.19385429	     10.20269215	    -14.14617786	     -7.18354666	     13.79001305	     -6.51324156	    -12.35639808	     35.71390295	      0.62332520	      5.25331566	    -13.21005607	     -7.18354666	     -3.30829393	      1.44175247	     -3.46506739	     45.04098241	     12.58967536	     64.65406928	    118.15504221	     97.79683339	     35.64491322	      9.84798709	     66.34952308	    124.58780858	     92.88246750
      0.21666670	     -3.07211259	      3.01235650	      2.04252131	      0.58563998	      0.93480394	     -0.16952243	      5.38547582	      4.14813656	      5.24712612	     11.26795276	      0.19666288	     10.26795517	    -14.42327992	     -7.18540565	     13.57692781	     -6.35828182	    -12.01734682	     35.37831842	      0.61746814	      5.37983344	    -13.14951249	     -7.18540565	     -3.43752370	      1.52876927	     -3.43326503	     44.82399703	     12.54382936	     64.76609133	    118.36307098	     97.80055872	     35.72993575	     10.08074797	     66.40188716	    124.80031680	     92.80109249
      0.23333330	     -2.42230825	      3.05185397	      2.10524749	      0.58937231	      0.93714975	     -0.16752042	      4.44009827	      4.19188737	      5.61474490	     11.07578801	      0.19330897	      9.87790362	    -15.01522950	     -7.19308848	     12.78670334	     -6.25933057	    -11.76604876	     35.39473063	      0.61775459	      4.80350944	    -13.66498971	     -7.19308848	     -4.10544634	      1.41400201	     -3.34301887	     44.88238854	     12.37967366	     64.77533258	    118.78512440	     97.79871104	     35.89409293	     10.24582996	     66.46258288	    124.80415315	     92.43524200
      0.25000000	     -2.38761297	      3.05214394	      2.16181662	      0.58527885	      0.93077058	     -0.17001832	      4.59496861	      4.17847066	      5.44483797	     11.52739402	      0.20119098	     10.14916617	    -15.34064501	     -7.19732977	     12.94393403	     -6.24889030	    -11.70034496	     35.85429431	      0.62577549	      5.04560590	    -13.78854349	     -7.19732977	     -4.19989666	      1.49404936	     -3.14257492	     45.31862954	     12.28223380	     64.54218340	    118.90229199	     97.62302533	     36.07304257	     10.56237908	     66.40685746	    125.09936800	     92.21641577
      0.26666670	     -2.20887197	      3.16840632	      1.90106786	      0.58479426	      0.93348816	     -0.16971522	      4.60181144	      4.04730517	      5.62923463	     11.86792561	      0.20713438	     10.22336703	    -15.63716695	     -7.25164415	     12.99081152	     -6.12598693	    -11.72647464	     36.34879596	      0.63440617	      4.95337220	    -13.93960100	     -7.25164415	     -4.57201756	      1.32952558	     -2.81306603	     45.75999858	     12.31415384	     64.70637003	    119.08322465	     95.16798046	     36.25192954	     10.67205913	     66.54814351	    125.42469972	     89.50199030
